<?xml version="1.0" encoding="UTF-8"?>
<svg id="layer1" data-name="Слой 1" xmlns="http://www.w3.org/2000/svg" viewBox="0 0 256 256">
  <defs>
    <style>
      .cls-1 {
        fill: #039906;
        stroke-width: 0px;
      }
    </style>
  </defs>
  <path class="cls-1" d="m134.16,123.39L22.81,30.79c-3.91-3.25-9.84-.47-9.84,4.61v185.19c0,5.08,5.93,7.86,9.84,4.61l111.36-92.59c2.89-2.4,2.89-6.83,0-9.23Z"/>
  <path class="cls-1" d="m240.38,122.57l-107.9-89.72c-4.79-3.98-12.05-.58-12.05,5.65v49.9l41.1,34.17c3.53,2.94,3.53,8.36,0,11.3l-41.1,34.17v49.9c0,6.23,7.26,9.63,12.05,5.65l107.9-89.72c3.53-2.94,3.53-8.36,0-11.3Z"/>
</svg>